<svg id="Calque_1" data-name="Calque 1" xmlns="http://www.w3.org/2000/svg" xmlns:xlink="http://www.w3.org/1999/xlink" viewBox="0 0 1980 322.274">
  <defs>
    <style>
      .cls-1, .cls-12, .cls-13, .cls-3, .cls-4, .cls-7, .cls-8 {
        fill: none;
        stroke-width: 2px;
      }

      .cls-1 {
        stroke: #626161;
      }

      .cls-1, .cls-12, .cls-13, .cls-3, .cls-4, .cls-8 {
        stroke-miterlimit: 10;
      }

      .cls-2 {
        fill: #626161;
      }

      .cls-3 {
        stroke: url(#Dégradé_sans_nom_5);
      }

      .cls-4 {
        stroke: #010101;
      }

      .cls-5 {
        fill: #e4e4e3;
        stroke: #e4e4e3;
        stroke-width: 3px;
      }

      .cls-10, .cls-11, .cls-5, .cls-7, .cls-9 {
        stroke-linejoin: round;
      }

      .cls-6 {
        fill: #a5ca75;
      }

      .cls-7, .cls-8, .cls-9 {
        stroke: #4fa833;
      }

      .cls-7, .cls-8 {
        stroke-linecap: round;
      }

      .cls-9 {
        fill: #4fa833;
      }

      .cls-10 {
        fill: #b1b0b0;
        stroke: #b1b0b0;
      }

      .cls-11 {
        fill: #ffd803;
        stroke: #ffd803;
      }

      .cls-12 {
        stroke: url(#Dégradé_sans_nom_5-2);
      }

      .cls-13 {
        stroke: url(#Dégradé_sans_nom_82);
      }
    </style>
    <linearGradient id="Dégradé_sans_nom_5" data-name="Dégradé sans nom 5" x1="711.645" y1="292.55" x2="798.151" y2="292.55" gradientUnits="userSpaceOnUse">
      <stop offset="0" stop-color="#3aaa35"/>
      <stop offset="1" stop-color="#636262"/>
    </linearGradient>
    <linearGradient id="Dégradé_sans_nom_5-2" x1="640.668" y1="320.065" x2="818.641" y2="320.065" xlink:href="#Dégradé_sans_nom_5"/>
    <linearGradient id="Dégradé_sans_nom_82" data-name="Dégradé sans nom 82" x1="274.994" y1="220.314" x2="513.408" y2="220.314" gradientUnits="userSpaceOnUse">
      <stop offset="0" stop-color="#636262"/>
      <stop offset="0.076" stop-color="#5d6d5b"/>
      <stop offset="0.298" stop-color="#4e884a"/>
      <stop offset="0.524" stop-color="#439b3f"/>
      <stop offset="0.756" stop-color="#3ca637"/>
      <stop offset="1" stop-color="#3aaa35"/>
    </linearGradient>
  </defs>
  <rect class="cls-1" x="133.54" y="23.921" width="130.131" height="17.702"/>
  <line class="cls-1" x1="208.653" x2="208.653" y2="23.921"/>
  <polyline class="cls-1" points="319.168 320.065 100.29 320.065 0 320.065"/>
  <path class="cls-1" d="M274.994,229.242" transform="translate(0 -108.68)"/>
  <polyline class="cls-1" points="263.671 41.623 263.671 120.562 274.994 120.562"/>
  <polyline class="cls-1" points="145.979 41.623 145.979 283.704 311.357 283.704"/>
  <line class="cls-1" x1="145.979" y1="283.704" x2="145.979" y2="320.065"/>
  <polyline class="cls-1" points="756.446 320.065 1883.131 320.065 1980 320.065"/>
  <polyline class="cls-2" points="751.597 320.065 751.278 193.761 759.476 193.761 759.476 320.065"/>
  <path class="cls-3" d="M751.278,368.463s-32.946-3.827-38.368-35.722c0,0-3.508-32.533,14.991-38.274-10.207-18.18-2.4-36.041,4.06-35.722-3.423-14.034-10.983-42.1,23.416-42.1s29.3,37.955,23.555,41.144c12.439,12.12,13.388,28.068,4.142,38.593-.432,6.06,44.338,36.679-23.6,72.082" transform="translate(0 -108.68)"/>
  <polyline class="cls-2" points="1403.36 320.184 1403.034 223.782 1408.611 223.782 1408.611 320.184"/>
  <path class="cls-1" d="M1403.3,381.459s-25.843-3-30.1-28.02c0,0-2.753-25.519,11.758-30.023-8.006-14.26-1.885-28.271,3.186-28.02-2.685-11.009-8.616-33.025,18.367-33.025s22.98,29.772,18.477,32.274c9.757,9.507,10.5,22.016,3.249,30.272-.339,4.754,19.653,56.542-24.941,56.542" transform="translate(0 -108.68)"/>
  <path class="cls-1" d="M1853.273,401.453s-25.944-3.22-30.214-30.051c0,0-2.763-27.368,11.805-32.2-8.038-15.294-1.893-30.319,3.2-30.051-2.7-11.806-8.65-35.417,18.439-35.417s23.07,31.929,18.549,34.612c9.8,10.2,10.543,23.612,3.262,32.466-.34,5.1,34.916,30.856-18.583,60.639" transform="translate(0 -108.68)"/>
  <polygon class="cls-2" points="773.43 294.23 773.43 303.559 799.744 303.559 884.185 303.559 884.185 293.512 773.43 294.23"/>
  <polygon class="cls-2" points="773.43 271.744 773.43 280.356 886.099 280.356 886.099 269.113 773.43 269.113 773.43 271.744"/>
  <rect class="cls-2" x="790.893" y="303.559" width="8.851" height="15.31"/>
  <rect class="cls-2" x="861.221" y="303.559" width="6.698" height="15.31"/>
  <polyline class="cls-1" points="909.542 320.065 909.542 128.696 963.603 60.281 1016.543 126.138 1016.543 320.065"/>
  <polyline class="cls-1" points="1016.349 201.416 1245.873 201.416 1245.873 318.869"/>
  <line class="cls-1" x1="1016.349" y1="298.536" x2="1243.48" y2="298.536"/>
  <line class="cls-1" x1="1016.543" y1="126.138" x2="1245.873" y2="201.416"/>
  <rect class="cls-2" x="1265.966" y="271.983" width="110.755" height="9.808"/>
  <polygon class="cls-2" points="1265.966 294.947 1265.966 302.124 1377.917 302.124 1377.917 292.795 1265.966 292.795 1265.966 294.947"/>
  <rect class="cls-2" x="1282.711" y="302.124" width="8.133" height="17.941"/>
  <rect class="cls-2" x="1351.604" y="302.124" width="6.937" height="16.745"/>
  <rect class="cls-2" x="1852.296" y="238.254" width="7.655" height="81.81"/>
  <rect class="cls-1" x="1469.774" y="238.254" width="63.152" height="81.81"/>
  <polyline class="cls-1" points="1493.217 238.254 1493.217 221.988 1518.095 221.988 1518.095 238.254"/>
  <polyline class="cls-1" points="1532.926 292.795 1651.575 292.773 1651.575 318.869"/>
  <polyline class="cls-1" points="1532.926 267.917 1532.926 144.005 1669.276 144.005 1669.276 320.065"/>
  <line class="cls-1" x1="1651.575" y1="144.005" x2="1651.575" y2="292.773"/>
  <polyline class="cls-1" points="1532.926 144.005 1518.095 144.005 1518.095 125.347 1669.276 125.347 1669.276 144.005"/>
  <path class="cls-4" d="M1578.855,196.71" transform="translate(0 -108.68)"/>
  <rect class="cls-2" x="1575.984" y="88.03" width="7.655" height="37.317"/>
  <polygon class="cls-2" points="1596.716 125.347 1596.716 106.688 1655.083 106.688 1655.083 125.347 1648.385 125.347 1648.066 112.11 1605.008 112.11 1605.008 125.347 1596.716 125.347"/>
  <polyline class="cls-1" points="1669.276 151.341 1669.276 98.714 1812.644 98.714 1812.644 119.446 1669.276 119.765"/>
  <line class="cls-1" x1="1812.644" y1="119.446" x2="1812.644" y2="320.065"/>
  <line class="cls-1" x1="1669.276" y1="291.359" x2="1812.644" y2="291.359"/>
  <polygon class="cls-2" points="1744.389 98.714 1744.389 77.744 1800.125 77.744 1800.125 98.714 1795.341 98.714 1795.101 83.006 1750.608 83.006 1750.608 98.714 1744.389 98.714"/>
  <path class="cls-1" d="M433.192,428.745" transform="translate(0 -108.68)"/>
  <path class="cls-1" d="M319.168,428.745" transform="translate(0 -108.68)"/>
  <g>
    <path class="cls-5" d="M658.341,428.805H630.124a8.428,8.428,0,0,1-8.428-8.429V384.83l-.046-20.521,36.691,20.521Z" transform="translate(0 -108.68)"/>
    <path class="cls-5" d="M534.664,428.805H488.628V377.868L542.5,350.384v70.588A7.833,7.833,0,0,1,534.664,428.805Z" transform="translate(0 -108.68)"/>
    <path class="cls-6" d="M502.737,277.094s-7.513,13.375,22.9,12.551c7.054,9.894,26.293,16.765,39.21,2.473,18.139.55,30.782-2.473,28.309-17.315C548.635,259.413,502.737,277.094,502.737,277.094Z" transform="translate(0 -108.68)"/>
    <path class="cls-7" d="M543.962,277.094V419.277a9.527,9.527,0,0,1-9.527,9.528H488.628" transform="translate(0 -108.68)"/>
    <path class="cls-8" d="M621.65,240.449V419.277a9.528,9.528,0,0,0,9.528,9.528H658.3" transform="translate(0 -108.68)"/>
    <path class="cls-9" d="M613.965,280.392H480.632c-4.758,0-7.951-3.968-6.155-7.59,2.172-4.379,7.008-9.108,17.747-9.542,0-7.695,5.571-41.867,36.211-41.867,23.956,0,31.457,23.506,31.457,23.506s50.4-2.676,49.322,19.186a16.481,16.481,0,0,1,11.581,6.6C623.789,275.011,620.016,280.392,613.965,280.392Z" transform="translate(0 -108.68)"/>
    <circle class="cls-9" cx="620.818" cy="133.543" r="6.737"/>
    <polygon class="cls-9" points="609.275 127.533 585.526 123.469 561.777 119.404 584.36 127.804 606.943 136.204 621.694 135.716 609.275 127.533"/>
    <polygon class="cls-9" points="622.101 149.314 633.66 170.454 645.219 191.595 637.782 168.677 630.346 145.759 620.805 134.498 622.101 149.314"/>
    <polygon class="cls-9" points="633.084 126.854 646.029 106.533 658.975 86.212 642.484 103.779 625.994 121.345 620.73 135.134 633.084 126.854"/>
    <rect class="cls-10" x="559.892" y="194.982" width="14.315" height="18.689"/>
    <rect class="cls-10" x="591.406" y="194.982" width="14.315" height="18.689"/>
    <rect class="cls-10" x="559.892" y="225.031" width="14.315" height="18.689"/>
    <rect class="cls-11" x="591.406" y="225.031" width="14.315" height="18.689"/>
    <rect class="cls-10" x="559.892" y="253.247" width="14.315" height="18.689"/>
    <rect class="cls-10" x="574.206" y="291.908" width="17.956" height="29.866"/>
    <rect class="cls-10" x="591.406" y="253.247" width="14.315" height="18.689"/>
  </g>
  <line class="cls-12" x1="640.668" y1="320.065" x2="818.641" y2="320.065"/>
  <polyline class="cls-13" points="513.408 320.065 311.357 320.065 311.357 320.065 311.357 120.562 274.994 120.562"/>
</svg>
