<svg id="Calque_1" data-name="Calque 1" xmlns="http://www.w3.org/2000/svg" xmlns:xlink="http://www.w3.org/1999/xlink" viewBox="0 0 2083.65 179.02"><defs><style>.cls-1,.cls-12,.cls-13,.cls-3,.cls-4,.cls-7,.cls-8{fill:none;stroke-width:2px;}.cls-1{stroke:#626161;}.cls-1,.cls-12,.cls-13,.cls-3,.cls-4,.cls-8{stroke-miterlimit:10;}.cls-2{fill:#626161;}.cls-3{stroke:url(#Dégradé_sans_nom_5);}.cls-4{stroke:#010101;}.cls-5{fill:#e4e4e3;stroke:#e4e4e3;stroke-width:3px;}.cls-10,.cls-11,.cls-5,.cls-7,.cls-9{stroke-linejoin:round;}.cls-6{fill:#a5ca75;}.cls-7,.cls-8,.cls-9{stroke:#4fa833;}.cls-7,.cls-8{stroke-linecap:round;}.cls-9{fill:#4fa833;}.cls-10{fill:#b1b0b0;stroke:#b1b0b0;}.cls-11{fill:#ffd803;stroke:#ffd803;}.cls-12{stroke:url(#Dégradé_sans_nom_5-2);}.cls-13{stroke:url(#Dégradé_sans_nom_82);}</style><linearGradient id="Dégradé_sans_nom_5" x1="822.18" y1="265.64" x2="871.04" y2="265.64" gradientUnits="userSpaceOnUse"><stop offset="0" stop-color="#3aaa35"/><stop offset="1" stop-color="#636262"/></linearGradient><linearGradient id="Dégradé_sans_nom_5-2" x1="873.09" y1="177.48" x2="971.79" y2="177.48" xlink:href="#Dégradé_sans_nom_5"/><linearGradient id="Dégradé_sans_nom_82" x1="670.32" y1="122.17" x2="802.53" y2="122.17" gradientUnits="userSpaceOnUse"><stop offset="0" stop-color="#636262"/><stop offset="0.08" stop-color="#5d6d5b"/><stop offset="0.3" stop-color="#4e884a"/><stop offset="0.52" stop-color="#439b3f"/><stop offset="0.76" stop-color="#3ca637"/><stop offset="1" stop-color="#3aaa35"/></linearGradient></defs><rect class="cls-1" x="591.88" y="13.26" width="72.16" height="9.82"/><line class="cls-1" x1="633.53" x2="633.53" y2="13.26"/><polyline class="cls-1" points="694.82 177.48 573.44 177.48 0 177.48"/><path class="cls-1" d="M580.49,230.53" transform="translate(89.83 -163.68)"/><polyline class="cls-1" points="664.04 23.08 664.04 66.86 670.32 66.86"/><polyline class="cls-1" points="598.78 23.08 598.78 157.32 690.48 157.32"/><line class="cls-1" x1="598.78" y1="157.32" x2="598.78" y2="177.48"/><polyline class="cls-1" points="937.3 177.48 1562.07 177.48 2083.65 177.48"/><polyline class="cls-2" points="934.61 177.48 934.43 107.45 938.98 107.45 938.98 177.48"/><path class="cls-3" d="M844.6,307.73s-18.27-2.12-21.27-19.8c0,0-2-18,8.31-21.23-5.66-10.08-1.33-20,2.25-19.81-1.9-7.78-6.09-23.34,13-23.34s16.25,21,13.07,22.81c6.89,6.72,7.42,15.57,2.29,21.4-.24,3.36,24.59,20.34-13.08,40" transform="translate(89.83 -163.68)"/><polyline class="cls-2" points="1296.03 177.55 1295.85 124.09 1298.94 124.09 1298.94 177.55"/><path class="cls-1" d="M1206.16,314.94s-14.33-1.66-16.69-15.54c0,0-1.52-14.15,6.52-16.65-4.44-7.9-1-15.67,1.77-15.53-1.49-6.11-4.78-18.32,10.19-18.32s12.74,16.51,10.24,17.9c5.41,5.27,5.82,12.21,1.8,16.79-.19,2.63,10.56,29.05-13.83,31.35" transform="translate(89.83 -163.68)"/><path class="cls-1" d="M1455.69,326s-14.39-1.79-16.76-16.67c0,0-1.53-15.17,6.55-17.85-4.46-8.48-1-16.81,1.77-16.66-1.49-6.55-4.79-19.64,10.23-19.64s12.79,17.7,10.28,19.19c5.44,5.65,5.85,13.09,1.81,18-.19,2.83,19.36,17.11-10.3,33.63" transform="translate(89.83 -163.68)"/><polygon class="cls-2" points="946.72 163.16 946.72 168.33 961.31 168.33 1008.13 168.33 1008.13 162.76 946.72 163.16"/><polygon class="cls-2" points="946.72 150.69 946.72 155.46 1009.19 155.46 1009.19 149.23 946.72 149.23 946.72 150.69"/><rect class="cls-2" x="956.4" y="168.33" width="4.91" height="8.49"/><rect class="cls-2" x="995.4" y="168.33" width="3.71" height="8.49"/><polyline class="cls-1" points="1022.19 177.48 1022.19 71.36 1052.17 33.43 1081.53 69.95 1081.53 177.48"/><polyline class="cls-1" points="1081.42 111.69 1208.7 111.69 1208.7 176.82"/><line class="cls-1" x1="1081.42" y1="165.55" x2="1207.37" y2="165.55"/><line class="cls-1" x1="1081.53" y1="69.95" x2="1208.7" y2="111.69"/><rect class="cls-2" x="1219.84" y="150.82" width="61.42" height="5.44"/><polygon class="cls-2" points="1219.84 163.56 1219.84 167.54 1281.92 167.54 1281.92 162.36 1219.84 162.36 1219.84 163.56"/><rect class="cls-2" x="1229.12" y="167.54" width="4.51" height="9.95"/><rect class="cls-2" x="1267.33" y="167.54" width="3.85" height="9.29"/><rect class="cls-2" x="1544.97" y="132.12" width="4.24" height="45.37"/><rect class="cls-1" x="1332.86" y="132.12" width="35.02" height="45.37"/><polyline class="cls-1" points="1345.86 132.12 1345.86 123.1 1359.65 123.1 1359.65 132.12"/><polyline class="cls-1" points="1367.88 162.36 1433.67 162.35 1433.67 176.82"/><polyline class="cls-1" points="1367.88 148.57 1367.88 79.86 1443.48 79.86 1443.48 177.48"/><line class="cls-1" x1="1433.67" y1="79.85" x2="1433.67" y2="162.35"/><polyline class="cls-1" points="1367.88 79.86 1359.65 79.86 1359.65 69.51 1443.48 69.51 1443.48 79.86"/><path class="cls-4" d="M1303.51,212.49" transform="translate(89.83 -163.68)"/><rect class="cls-2" x="1391.75" y="48.81" width="4.24" height="20.69"/><polygon class="cls-2" points="1403.25 69.51 1403.25 59.16 1435.62 59.16 1435.62 69.51 1431.9 69.51 1431.72 62.17 1407.85 62.17 1407.85 69.51 1403.25 69.51"/><polyline class="cls-1" points="1443.48 83.92 1443.48 54.74 1522.99 54.74 1522.99 66.24 1443.48 66.41"/><line class="cls-1" x1="1522.99" y1="66.24" x2="1522.99" y2="177.48"/><line class="cls-1" x1="1443.49" y1="161.57" x2="1522.99" y2="161.57"/><polygon class="cls-2" points="1485.14 54.74 1485.14 43.11 1516.04 43.11 1516.04 54.74 1513.39 54.74 1513.26 46.03 1488.59 46.03 1488.59 54.74 1485.14 54.74"/><path class="cls-1" d="M668.21,341.16" transform="translate(89.83 -163.68)"/><path class="cls-1" d="M605,341.16" transform="translate(89.83 -163.68)"/><path class="cls-5" d="M793.07,341.2H777.42a4.68,4.68,0,0,1-4.67-4.68V316.81l0-11.38,20.35,11.38Z" transform="translate(89.83 -163.68)"/><path class="cls-5" d="M724.48,341.2H699V313l29.87-15.24v39.14A4.35,4.35,0,0,1,724.48,341.2Z" transform="translate(89.83 -163.68)"/><path class="cls-6" d="M706.78,257.07s-4.17,7.41,12.7,7c3.91,5.48,14.58,9.29,21.74,1.37,10.06.3,17.07-1.37,15.7-9.6C732.23,247.26,706.78,257.07,706.78,257.07Z" transform="translate(89.83 -163.68)"/><path class="cls-7" d="M729.64,257.07v78.84a5.29,5.29,0,0,1-5.28,5.29H699" transform="translate(89.83 -163.68)"/><path class="cls-8" d="M772.72,236.75v99.16A5.29,5.29,0,0,0,778,341.2h15" transform="translate(89.83 -163.68)"/><path class="cls-9" d="M768.46,258.9H694.52c-2.64,0-4.41-2.2-3.41-4.21,1.2-2.43,3.88-5.05,9.84-5.29,0-4.27,3.09-23.22,20.08-23.22,13.28,0,17.44,13,17.44,13s27.95-1.48,27.35,10.64a9.16,9.16,0,0,1,6.43,3.67C773.91,255.91,771.81,258.9,768.46,258.9Z" transform="translate(89.83 -163.68)"/><circle class="cls-9" cx="862.09" cy="74.05" r="3.74"/><polygon class="cls-9" points="855.69 70.72 842.52 68.47 829.35 66.21 841.87 70.87 854.39 75.53 862.57 75.26 855.69 70.72"/><polygon class="cls-9" points="862.8 82.8 869.21 94.52 875.62 106.24 871.5 93.54 867.37 80.83 862.08 74.58 862.8 82.8"/><polygon class="cls-9" points="868.89 70.34 876.07 59.08 883.25 47.81 874.1 57.55 864.96 67.29 862.04 74.94 868.89 70.34"/><rect class="cls-10" x="828.3" y="108.12" width="7.94" height="10.36"/><rect class="cls-10" x="845.78" y="108.12" width="7.94" height="10.36"/><rect class="cls-10" x="828.3" y="124.79" width="7.94" height="10.36"/><rect class="cls-11" x="845.78" y="124.79" width="7.94" height="10.36"/><rect class="cls-10" x="828.3" y="140.43" width="7.94" height="10.36"/><rect class="cls-10" x="836.24" y="161.87" width="9.96" height="16.56"/><rect class="cls-10" x="845.78" y="140.43" width="7.94" height="10.36"/><line class="cls-12" x1="873.09" y1="177.48" x2="971.79" y2="177.48"/><polyline class="cls-13" points="802.53 177.48 690.48 177.48 690.48 177.48 690.48 66.86 670.32 66.86"/></svg>