<svg id="Calque_1" data-name="Calque 1" xmlns="http://www.w3.org/2000/svg" xmlns:xlink="http://www.w3.org/1999/xlink" viewBox="0 0 3757.53 322.274">
  <defs>
    <style>
      .cls-1, .cls-12, .cls-13, .cls-3, .cls-4, .cls-7, .cls-8 {
        fill: none;
        stroke-width: 2px;
      }

      .cls-1 {
        stroke: #626161;
      }

      .cls-1, .cls-12, .cls-13, .cls-3, .cls-4, .cls-8 {
        stroke-miterlimit: 10;
      }

      .cls-2 {
        fill: #626161;
      }

      .cls-3 {
        stroke: url(#Dégradé_sans_nom_5);
      }

      .cls-4 {
        stroke: #010101;
      }

      .cls-5 {
        fill: #e4e4e3;
        stroke: #e4e4e3;
        stroke-width: 3px;
      }

      .cls-10, .cls-11, .cls-5, .cls-7, .cls-9 {
        stroke-linejoin: round;
      }

      .cls-6 {
        fill: #a5ca75;
      }

      .cls-7, .cls-8, .cls-9 {
        stroke: #4fa833;
      }

      .cls-7, .cls-8 {
        stroke-linecap: round;
      }

      .cls-9 {
        fill: #4fa833;
      }

      .cls-10 {
        fill: #b1b0b0;
        stroke: #b1b0b0;
      }

      .cls-11 {
        fill: #ffd803;
        stroke: #ffd803;
      }

      .cls-12 {
        stroke: url(#Dégradé_sans_nom_5-2);
      }

      .cls-13 {
        stroke: url(#Dégradé_sans_nom_82);
      }
    </style>
    <linearGradient id="Dégradé_sans_nom_5" data-name="Dégradé sans nom 5" x1="711.645" y1="292.55" x2="798.151" y2="292.55" gradientUnits="userSpaceOnUse">
      <stop offset="0" stop-color="#3aaa35"/>
      <stop offset="1" stop-color="#636262"/>
    </linearGradient>
    <linearGradient id="Dégradé_sans_nom_5-2" x1="1574.488" y1="320.065" x2="1752.461" y2="320.065" xlink:href="#Dégradé_sans_nom_5"/>
    <linearGradient id="Dégradé_sans_nom_82" data-name="Dégradé sans nom 82" x1="1208.814" y1="220.314" x2="1447.228" y2="220.314" gradientUnits="userSpaceOnUse">
      <stop offset="0" stop-color="#636262"/>
      <stop offset="0.076" stop-color="#5d6d5b"/>
      <stop offset="0.298" stop-color="#4e884a"/>
      <stop offset="0.524" stop-color="#439b3f"/>
      <stop offset="0.756" stop-color="#3ca637"/>
      <stop offset="1" stop-color="#3aaa35"/>
    </linearGradient>
  </defs>
  <rect class="cls-1" x="1067.36" y="23.921" width="130.131" height="17.702"/>
  <line class="cls-1" x1="1142.473" x2="1142.473" y2="23.921"/>
  <polyline class="cls-1" points="1252.988 320.065 1034.11 320.065 0 320.065"/>
  <path class="cls-1" d="M274.994,229.242" transform="translate(933.82 -108.68)"/>
  <polyline class="cls-1" points="1197.491 41.623 1197.491 120.562 1208.814 120.562"/>
  <polyline class="cls-1" points="1079.799 41.623 1079.799 283.704 1245.177 283.704"/>
  <line class="cls-1" x1="1079.799" y1="283.704" x2="1079.799" y2="320.065"/>
  <polyline class="cls-1" points="1690.266 320.065 2816.951 320.065 3757.53 320.065"/>
  <polyline class="cls-2" points="1685.417 320.065 1685.098 193.761 1693.296 193.761 1693.296 320.065"/>
  <path class="cls-3" d="M751.278,368.463s-32.946-3.827-38.368-35.722c0,0-3.508-32.533,14.991-38.274-10.207-18.18-2.4-36.041,4.06-35.722-3.423-14.034-10.983-42.1,23.416-42.1s29.3,37.955,23.555,41.144c12.439,12.12,13.388,28.068,4.142,38.593-.432,6.06,44.338,36.679-23.6,72.082" transform="translate(933.82 -108.68)"/>
  <polyline class="cls-2" points="2337.18 320.184 2336.854 223.782 2342.431 223.782 2342.431 320.184"/>
  <path class="cls-1" d="M1403.3,381.459s-25.843-3-30.1-28.02c0,0-2.753-25.519,11.758-30.023-8.006-14.26-1.885-28.271,3.186-28.02-2.685-11.009-8.616-33.025,18.367-33.025s22.98,29.772,18.477,32.274c9.757,9.507,10.5,22.016,3.249,30.272-.339,4.754,19.043,52.4-24.941,56.542" transform="translate(933.82 -108.68)"/>
  <path class="cls-1" d="M1853.273,401.453s-25.944-3.22-30.214-30.051c0,0-2.763-27.368,11.805-32.2-8.038-15.294-1.893-30.319,3.2-30.051-2.7-11.806-8.65-35.417,18.439-35.417s23.07,31.929,18.549,34.612c9.8,10.2,10.543,23.612,3.262,32.466-.34,5.1,34.916,30.856-18.583,60.639" transform="translate(933.82 -108.68)"/>
  <polygon class="cls-2" points="1707.25 294.23 1707.25 303.559 1733.564 303.559 1818.005 303.559 1818.005 293.512 1707.25 294.23"/>
  <polygon class="cls-2" points="1707.25 271.744 1707.25 280.356 1819.919 280.356 1819.919 269.113 1707.25 269.113 1707.25 271.744"/>
  <rect class="cls-2" x="1724.713" y="303.559" width="8.851" height="15.31"/>
  <rect class="cls-2" x="1795.041" y="303.559" width="6.698" height="15.31"/>
  <polyline class="cls-1" points="1843.362 320.065 1843.362 128.696 1897.423 60.281 1950.363 126.138 1950.363 320.065"/>
  <polyline class="cls-1" points="1950.169 201.416 2179.692 201.416 2179.692 318.869"/>
  <line class="cls-1" x1="1950.169" y1="298.536" x2="2177.3" y2="298.536"/>
  <line class="cls-1" x1="1950.363" y1="126.138" x2="2179.692" y2="201.416"/>
  <rect class="cls-2" x="2199.786" y="271.983" width="110.755" height="9.808"/>
  <polygon class="cls-2" points="2199.786 294.947 2199.786 302.124 2311.737 302.124 2311.737 292.795 2199.786 292.795 2199.786 294.947"/>
  <rect class="cls-2" x="2216.531" y="302.124" width="8.133" height="17.941"/>
  <rect class="cls-2" x="2285.424" y="302.124" width="6.937" height="16.745"/>
  <rect class="cls-2" x="2786.116" y="238.254" width="7.655" height="81.81"/>
  <rect class="cls-1" x="2403.594" y="238.254" width="63.152" height="81.81"/>
  <polyline class="cls-1" points="2427.037 238.254 2427.037 221.988 2451.915 221.988 2451.915 238.254"/>
  <polyline class="cls-1" points="2466.746 292.795 2585.395 292.773 2585.395 318.869"/>
  <polyline class="cls-1" points="2466.746 267.917 2466.746 144.005 2603.096 144.005 2603.096 320.065"/>
  <line class="cls-1" x1="2585.395" y1="144.005" x2="2585.395" y2="292.773"/>
  <polyline class="cls-1" points="2466.746 144.005 2451.915 144.005 2451.915 125.347 2603.096 125.347 2603.096 144.005"/>
  <path class="cls-4" d="M1578.855,196.71" transform="translate(933.82 -108.68)"/>
  <rect class="cls-2" x="2509.804" y="88.03" width="7.655" height="37.317"/>
  <polygon class="cls-2" points="2530.536 125.347 2530.536 106.688 2588.903 106.688 2588.903 125.347 2582.205 125.347 2581.886 112.11 2538.828 112.11 2538.828 125.347 2530.536 125.347"/>
  <polyline class="cls-1" points="2603.096 151.341 2603.096 98.714 2746.464 98.714 2746.464 119.446 2603.096 119.765"/>
  <line class="cls-1" x1="2746.464" y1="119.446" x2="2746.464" y2="320.065"/>
  <line class="cls-1" x1="2603.096" y1="291.359" x2="2746.464" y2="291.359"/>
  <polygon class="cls-2" points="2678.209 98.714 2678.209 77.744 2733.945 77.744 2733.945 98.714 2729.161 98.714 2728.921 83.006 2684.428 83.006 2684.428 98.714 2678.209 98.714"/>
  <path class="cls-1" d="M433.192,428.745" transform="translate(933.82 -108.68)"/>
  <path class="cls-1" d="M319.168,428.745" transform="translate(933.82 -108.68)"/>
  <g>
    <path class="cls-5" d="M658.341,428.805H630.124a8.428,8.428,0,0,1-8.428-8.429V384.83l-.046-20.521,36.691,20.521Z" transform="translate(933.82 -108.68)"/>
    <path class="cls-5" d="M534.664,428.805H488.628V377.868L542.5,350.384v70.588A7.833,7.833,0,0,1,534.664,428.805Z" transform="translate(933.82 -108.68)"/>
    <path class="cls-6" d="M502.737,277.094s-7.513,13.375,22.9,12.551c7.054,9.894,26.293,16.765,39.21,2.473,18.139.55,30.782-2.473,28.309-17.315C548.635,259.413,502.737,277.094,502.737,277.094Z" transform="translate(933.82 -108.68)"/>
    <path class="cls-7" d="M543.962,277.094V419.277a9.527,9.527,0,0,1-9.527,9.528H488.628" transform="translate(933.82 -108.68)"/>
    <path class="cls-8" d="M621.65,240.449V419.277a9.528,9.528,0,0,0,9.528,9.528H658.3" transform="translate(933.82 -108.68)"/>
    <path class="cls-9" d="M613.965,280.392H480.632c-4.758,0-7.951-3.968-6.155-7.59,2.172-4.379,7.008-9.108,17.747-9.542,0-7.695,5.571-41.867,36.211-41.867,23.956,0,31.457,23.506,31.457,23.506s50.4-2.676,49.322,19.186a16.481,16.481,0,0,1,11.581,6.6C623.789,275.011,620.016,280.392,613.965,280.392Z" transform="translate(933.82 -108.68)"/>
    <circle class="cls-9" cx="1554.638" cy="133.543" r="6.737"/>
    <polygon class="cls-9" points="1543.095 127.533 1519.346 123.469 1495.597 119.404 1518.18 127.804 1540.763 136.204 1555.514 135.716 1543.095 127.533"/>
    <polygon class="cls-9" points="1555.921 149.314 1567.48 170.454 1579.039 191.595 1571.602 168.677 1564.166 145.759 1554.625 134.498 1555.921 149.314"/>
    <polygon class="cls-9" points="1566.904 126.854 1579.849 106.533 1592.795 86.212 1576.304 103.779 1559.814 121.345 1554.55 135.134 1566.904 126.854"/>
    <rect class="cls-10" x="1493.712" y="194.982" width="14.315" height="18.689"/>
    <rect class="cls-10" x="1525.226" y="194.982" width="14.315" height="18.689"/>
    <rect class="cls-10" x="1493.712" y="225.031" width="14.315" height="18.689"/>
    <rect class="cls-11" x="1525.226" y="225.031" width="14.315" height="18.689"/>
    <rect class="cls-10" x="1493.712" y="253.247" width="14.315" height="18.689"/>
    <rect class="cls-10" x="1508.026" y="291.908" width="17.956" height="29.866"/>
    <rect class="cls-10" x="1525.226" y="253.247" width="14.315" height="18.689"/>
  </g>
  <line class="cls-12" x1="1574.488" y1="320.065" x2="1752.461" y2="320.065"/>
  <polyline class="cls-13" points="1447.228 320.065 1245.177 320.065 1245.177 320.065 1245.177 120.562 1208.814 120.562"/>
</svg>
